<svg width="6" height="9" viewBox="0 0 6 9" fill="none" xmlns="http://www.w3.org/2000/svg">
<path d="M0.875 4.47461C0.875 4.38997 0.889648 4.31185 0.918945 4.24023C0.951497 4.16862 1.00033 4.10026 1.06543 4.03516L4.86914 0.314453C4.97982 0.207031 5.11328 0.15332 5.26953 0.15332C5.37695 0.15332 5.47298 0.179362 5.55762 0.231445C5.64551 0.280273 5.71549 0.347005 5.76758 0.431641C5.81966 0.516276 5.8457 0.612305 5.8457 0.719727C5.8457 0.872721 5.78548 1.00944 5.66504 1.12988L2.2373 4.47461L5.66504 7.81934C5.78548 7.93978 5.8457 8.07812 5.8457 8.23438C5.8457 8.33854 5.81966 8.43294 5.76758 8.51758C5.71549 8.60547 5.64551 8.67383 5.55762 8.72266C5.47298 8.77474 5.37695 8.80078 5.26953 8.80078C5.11328 8.80078 4.97982 8.74544 4.86914 8.63477L1.06543 4.91406C1.00033 4.84896 0.951497 4.7806 0.918945 4.70898C0.889648 4.63737 0.875 4.55924 0.875 4.47461Z" fill="white"/>
</svg>
